:SAMPLES-PER-SECOND 30
:FULLY-SPECIFIED
:DEGREES
332
root  27.9158 39.2353 8.65309 -60.2112 85.2849 -57.0171
RightUpLeg  -2.516 -17.7261 1.47246
RightLeg  22.6305 -4.25044 0.974922
RightFoot  -14.5262 -0.184836 -3.10132
RightToes  0.000482159 0.542163 -0.142577
Spine  16.636 -0.402427 8.73168
Spine1  7.76378 2.09037 -4.22405
HEad  -6.4289 32.4239 -16.0568
LeftShoulder1  7.78171 -12.15 -43.2332
LeftArm  12.3083 -11.6503 -38.8865
LeftForeArm  31.6829 -32.5247 -5.37511
LeftHand  -0.25398 0.0180481 5.50724
RightShoulder  4.40969 8.66801 30.2698
RightArm  -11.6547 -0.237536 32.3578
RightForeArm  10.2654 9.89059 5.92465
RightHand  -0.587363 -0.316521 -13.4219
LeftUpLeg  -24.1356 7.56003 3.07846
LeftLeg  44.8194 3.42727 4.03082
LeftFoot  -2.64123 0.209953 -2.53022
LeftToes  1.06248e-005 4.65855e-005 -8.18498e-006
333
root  29.075 39.3002 8.9249 -70.2083 85.7646 -67.387
RightUpLeg  0.0733161 -15.7365 1.39133
RightLeg  20.8263 -7.12848 0.952253
RightFoot  -15.1677 -0.198381 -2.85456
RightToes  0.000482159 0.542163 -0.142577
Spine  16.178 0.1582 8.73945
Spine1  8.21156 2.78073 -5.41249
HEad  -5.64097 31.622 -15.613
LeftShoulder1  7.74459 -12.0721 -43.2423
LeftArm  5.88913 -10.1214 -36.4246
LeftForeArm  25.1328 -29.9765 -5.13263
LeftHand  -0.25398 0.0180481 5.50724
RightShoulder  4.27531 8.46093 29.7657
RightArm  -13.5629 1.93291 31.6142
RightForeArm  7.03617 11.3575 5.6778
RightHand  -0.724151 0.647986 -14.0021
LeftUpLeg  -24.6868 13.8819 0.77393
LeftLeg  33.3559 4.00208 3.19239
LeftFoot  -1.63242 0.264026 -3.0078
LeftToes  1.06248e-005 4.65855e-005 -8.18498e-006
334
root  30.2749 39.2755 9.17541 -88.2595 85.825 -85.725
RightUpLeg  2.8163 -13.7657 1.78292
RightLeg  19.0067 -10.3599 1.0176
RightFoot  -16.3293 -0.221584 -2.57603
RightToes  0.000482159 0.542163 -0.142577
Spine  15.8742 0.41243 8.84161
Spine1  8.57701 3.24382 -6.49026
HEad  -4.40382 30.627 -14.8741
LeftShoulder1  7.69757 -11.982 -43.2288
LeftArm  -0.891846 -8.29019 -33.9363
LeftForeArm  15.4235 -27 -4.97829
LeftHand  -0.25398 0.0180481 5.50724
RightShoulder  4.13455 8.19211 29.3763
RightArm  -17.1756 3.75117 31.5542
RightForeArm  2.47995 12.8896 5.22197
RightHand  -1.09702 2.54371 -16.1489
LeftUpLeg  -25.1437 23.0895 -3.22059
LeftLeg  21.7269 3.55859 2.20854
LeftFoot  -0.49354 0.287512 -2.98023
LeftToes  1.06248e-005 4.65855e-005 -8.18498e-006
335
root  31.5269 39.131 9.40927 -113.21 85.2644 -110.681
RightUpLeg  5.8871 -12.6914 2.11792
RightLeg  17.4432 -13.0797 1.3397
RightFoot  -17.779 -0.201232 -1.44462
RightToes  0.000482159 0.542163 -0.142577
Spine  15.8487 0.331112 8.52257
Spine1  8.95668 3.29034 -7.01028
HEad  -3.10696 29.7 -14.1873
LeftShoulder1  7.66881 -11.8965 -43.3107
LeftArm  -7.38732 -6.49607 -31.239
LeftForeArm  6.77621 -24.1394 -4.83025
LeftHand  -0.25398 0.0180481 5.50724
RightShoulder  4.01578 7.9328 29.1342
RightArm  -21.0865 5.49798 31.9952
RightForeArm  -4.32205 14.5003 4.98696
RightHand  -1.84125 5.20671 -20.2698
LeftUpLeg  -24.6016 29.2573 -6.07524
LeftLeg  11.6768 8.47274 -0.357099
LeftFoot  0.87192 0.416267 -3.94168
LeftToes  1.06248e-005 4.65855e-005 -8.18498e-006
336
root  32.8453 38.8893 9.62719 -134.573 83.807 -131.935
RightUpLeg  8.66349 -13.3933 2.26259
RightLeg  17.0395 -14.5568 1.41217
RightFoot  -18.9123 -0.142747 -0.20785
RightToes  0.000482159 0.542163 -0.142577
Spine  15.8356 0.152172 7.85348
Spine1  9.38633 3.08647 -7.03243
HEad  -2.15675 28.7956 -13.617
LeftShoulder1  7.63025 -11.8065 -43.3478
LeftArm  -13.1576 -5.1366 -28.3414
LeftForeArm  2.84262 -21.2299 -4.63479
LeftHand  -0.25398 0.0180481 5.50724
RightShoulder  3.9364 7.7006 29.1541
RightArm  -23.828 7.14181 32.5203
RightForeArm  -11.5609 16.4307 5.09034
RightHand  -2.79471 7.82933 -24.629
LeftUpLeg  -19.5029 17.9141 0.0294513
LeftLeg  2.10798 33.8787 -8.7691
LeftFoot  2.02732 0.344747 -3.06854
LeftToes  1.06248e-005 4.65855e-005 -8.18498e-006
337
root  34.2536 38.5754 9.81863 -145.927 81.9962 -143.265
RightUpLeg  10.7587 -17.5934 1.69275
RightLeg  18.6264 -12.4948 0.683972
RightFoot  -20.2529 -0.0849646 0.648154
RightToes  0.000482159 0.542163 -0.142577
Spine  15.8213 0.186591 7.18161
Spine1  9.67318 3.08334 -7.10789
HEad  -1.66935 27.6051 -12.9666
LeftShoulder1  7.56239 -11.7344 -43.1544
LeftArm  -17.6192 -4.18966 -25.2921
LeftForeArm  3.72934 -18.0551 -4.38576
LeftHand  -0.25398 0.0180481 5.50724
RightShoulder  3.93531 7.56928 29.5682
RightArm  -24.9094 8.16268 32.8198
RightForeArm  -16.4725 18.9692 5.35766
RightHand  -3.43028 9.29898 -27.0893
LeftUpLeg  -17.3139 11.6757 1.69007
LeftLeg  -5.7415 50.1927 -16.797
LeftFoot  1.57738 -0.310775 2.72557
LeftToes  1.06248e-005 4.65855e-005 -8.18498e-006
338
root  35.6936 38.2757 9.98405 -154.96 80.4709 -152.567
RightUpLeg  12.2507 -25.5882 -0.627612
RightLeg  21.8424 -5.53442 -0.52386
RightFoot  -21.567 0.154492 3.26468
RightToes  0.000482159 0.542163 -0.142577
Spine  16.1722 0.449036 5.75885
Spine1  9.93359 3.39147 -7.42029
HEad  -1.62849 26.1807 -12.4707
LeftShoulder1  7.49786 -11.7157 -42.8194
LeftArm  -19.8913 -3.42174 -22.1052
LeftForeArm  6.24708 -14.9348 -3.96423
LeftHand  -0.25398 0.0180481 5.50724
RightShoulder  4.04546 7.65677 30.2872
RightArm  -24.5925 8.46546 32.9836
RightForeArm  -17.7986 21.7413 5.63044
RightHand  -3.51083 9.49338 -27.3192
LeftUpLeg  -17.7803 13.0319 -0.497074
LeftLeg  -3.97216 52.2279 -15.8199
LeftFoot  -0.123043 -1.21792 12.4548
LeftToes  1.06248e-005 4.65855e-005 -8.18498e-006
339
root  37.1178 38.006 10.1275 -165.117 78.7735 -163.183
RightUpLeg  11.5725 -29.5423 -3.0136
RightLeg  28.2804 -1.83442 -1.58361
RightFoot  -20.4879 0.568323 9.20671
RightToes  0.000482159 0.542163 -0.142577
Spine  17.0708 0.74486 3.25159
Spine1  10.184 3.51719 -7.46044
HEad  -2.05574 24.94 -12.6834
LeftShoulder1  7.50562 -11.8183 -42.5612
LeftArm  -20.704 -2.79223 -18.8623
LeftForeArm  7.95465 -12.273 -3.5909
LeftHand  -0.25398 0.0180481 5.50724
RightShoulder  4.2089 7.92176 30.8871
RightArm  -23.2061 8.84509 33.5263
RightForeArm  -15.9139 23.632 5.81405
RightHand  -3.30188 9.13719 -26.372
LeftUpLeg  -21.401 22.3901 -7.12689
LeftLeg  6.96365 40.6365 -5.38676
LeftFoot  -2.63796 -1.55425 20.3297
LeftToes  1.06248e-005 4.65855e-005 -8.18498e-006
340
root  38.467 37.7952 10.2531 -173.841 76.1664 -172.453
RightUpLeg  6.99207 -29.4672 -4.54699
RightLeg  39.68 -2.77732 -2.81555
RightFoot  -13.1077 0.132564 14.0032
RightToes  0.000482159 0.542163 -0.142577
Spine  18.6875 0.801296 0.58024
Spine1  10.1359 3.08656 -7.06132
HEad  -2.90232 23.8828 -13.6463
LeftShoulder1  7.62868 -12.1486 -42.333
LeftArm  -20.8964 -2.48563 -15.979
LeftForeArm  8.39936 -10.0745 -3.31937
LeftHand  -0.25398 0.0180481 5.50724
RightShoulder  4.29831 8.16174 30.8963
RightArm  -20.8192 9.9849 34.8913
RightForeArm  -12.1147 24.1214 5.75266
RightHand  -2.9489 8.36355 -24.9356
LeftUpLeg  -27.9387 36.2308 -17.6317
LeftLeg  16.0099 21.3748 4.15089
LeftFoot  -5.21942 -1.1432 21.536
LeftToes  1.06248e-005 4.65855e-005 -8.18498e-006
341
root  39.5957 37.6457 10.3889 -179.894 72.7913 -179.199
RightUpLeg  -1.22222 -29.4659 -5.68049
RightLeg  53.5406 -2.81404 -4.42127
RightFoot  0.937984 -1.25339 12.3763
RightToes  0.000482159 0.542163 -0.142577
Spine  21.5436 0.614694 -1.56955
Spine1  9.76798 2.44387 -6.86398
HEad  -4.05371 22.4124 -14.8855
LeftShoulder1  7.79515 -12.6913 -41.7728
LeftArm  -20.5212 -2.87537 -14.1846
LeftForeArm  8.46862 -8.0269 -3.2133
LeftHand  -0.25398 0.0180481 5.50724
RightShoulder  4.27724 8.29835 30.2828
RightArm  -18.0866 11.6597 36.744
RightForeArm  -7.13098 24.0656 5.5033
RightHand  -2.32992 6.67734 -22.4945
LeftUpLeg  -30.5288 37.0957 -21.1946
LeftLeg  20.9432 16.4459 7.52598
LeftFoot  -6.90654 -0.700289 18.9651
LeftToes  1.06248e-005 4.65855e-005 -8.18498e-006
342
root  40.4906 37.4511 10.5992 176.175 69.3353 176.044
RightUpLeg  -10.8576 -27.9302 -6.10116
RightLeg  64.9484 -1.32467 -3.65084
RightFoot  13.15 -1.43495 6.89669
RightToes  0.000482159 0.542163 -0.142577
Spine  25.3568 0.62742 -3.10983
Spine1  9.49064 2.1189 -7.17432
HEad  -5.4859 20.0307 -16.0114
LeftShoulder1  7.84938 -13.2449 -40.5839
LeftArm  -19.6548 -4.54407 -14.0676
LeftForeArm  9.23627 -6.03829 -3.36842
LeftHand  -0.25398 0.0180481 5.50724
RightShoulder  4.23856 8.45939 29.458
RightArm  -16.1055 13.536 38.1451
RightForeArm  -1.8783 24.4695 5.33298
RightHand  -1.60202 4.45477 -19.0671
LeftUpLeg  -30.5443 34.6929 -21.3602
LeftLeg  24.7517 15.9357 8.18481
LeftFoot  -8.49912 -0.373075 17.0526
LeftToes  1.06248e-005 4.65855e-005 -8.18498e-006
